Coordinates
version=1
nRows=19
nColumns=63
inDegrees=yes

Units are S.I. units (second, meters, Newtons, ...)
If the header above contains a line with 'inDegrees', this indicates whether rotational values are in degrees (yes) or radians (no).

endheader
time	pelvis_tilt	pelvis_list	pelvis_rotation	pelvis_tx	pelvis_ty	pelvis_tz	hip_flexion_r	hip_adduction_r	hip_rotation_r	knee_angle_r	knee_angle_r_beta	ankle_angle_r	subtalar_angle_r	mtp_angle_r	hip_flexion_l	hip_adduction_l	hip_rotation_l	knee_angle_l	knee_angle_l_beta	ankle_angle_l	subtalar_angle_l	mtp_angle_l	L5_S1_Flex_Ext	L5_S1_Lat_Bending	L5_S1_axial_rotation	L4_L5_Flex_Ext	L4_L5_Lat_Bending	L4_L5_axial_rotation	L3_L4_Flex_Ext	L3_L4_Lat_Bending	L3_L4_axial_rotation	L2_L3_Flex_Ext	L2_L3_Lat_Bending	L2_L3_axial_rotation	L1_L2_Flex_Ext	L1_L2_Lat_Bending	L1_L2_axial_rotation	L1_T12_Flex_Ext	L1_T12_Lat_Bending	L1_T12_axial_rotation	Abs_r3	Abs_r2	Abs_r1	Abs_t1	Abs_t2	neck_flexion	neck_bending	neck_rotation	arm_flex_r	arm_add_r	arm_rot_r	elbow_flex_r	pro_sup_r	wrist_flex_r	wrist_dev_r	arm_flex_l	arm_add_l	arm_rot_l	elbow_flex_l	pro_sup_l	wrist_flex_l	wrist_dev_l
0.000000	5.972399	-4.263451	89.149586	0.314313	1.036569	0.427899	2.689602	-1.004677	-9.797972	10.496396	0.183197	22.996472	12.560912	0.000000	1.821168	-0.511429	3.604298	7.178633	0.125291	19.372250	-15.376614	0.000000	0.091894	0.340126	0.010776	0.170656	0.452368	0.011449	0.150973	0.826983	0.011449	0.105026	0.826983	0.009429	0.085333	0.693585	0.008755	0.052508	0.526856	0.008082	0.656390	3.847576	0.059931	0.000000	0.000000	25.304692	-8.108303	8.041070	11.862901	-12.934753	69.387429	52.770750	89.237060	-4.144206	4.264964	11.860072	-11.851895	57.126744	43.745067	67.971195	9.274808	-9.080983
0.016667	6.023456	-4.479483	89.731023	0.313810	1.035435	0.429092	2.876931	-0.936482	-9.392914	10.394564	0.181419	23.517154	11.936849	0.000000	1.971837	-0.568107	3.600811	6.907728	0.120563	19.610967	-14.457812	0.000000	0.110756	0.356564	-0.246696	0.205684	0.474230	-0.262114	0.181960	0.866950	-0.262114	0.126583	0.866950	-0.215859	0.102848	0.727106	-0.200440	0.063286	0.552318	-0.185022	0.791116	4.033525	-1.372047	0.000000	0.000000	25.774550	-7.501826	9.461175	13.259920	-12.428052	72.755265	51.969266	89.270377	-5.830983	2.101442	9.874065	-11.861708	51.516884	45.184236	68.262201	11.320365	-6.871136
0.033333	6.049138	-4.662799	90.252112	0.313351	1.034490	0.430191	3.041406	-0.904416	-9.131897	10.317271	0.180070	23.973219	11.469845	0.000000	2.116017	-0.593975	3.651825	6.696973	0.116884	19.775607	-13.734980	0.000000	0.125334	0.368207	-0.458721	0.232758	0.489715	-0.487391	0.205912	0.895257	-0.487391	0.143244	0.895257	-0.401381	0.116385	0.750847	-0.372711	0.071616	0.570352	-0.344041	0.895250	4.165226	-2.551267	0.000000	0.000000	26.095105	-6.978420	10.600462	14.359944	-12.011970	75.313309	51.271907	89.293758	-6.886921	0.539038	8.367594	-11.853968	47.278837	46.232983	68.780528	13.044617	-5.075230
0.050000	6.051450	-4.815264	90.713747	0.312937	1.033719	0.431197	3.183873	-0.905096	-8.998607	10.262580	0.179116	24.368632	11.144682	0.000000	2.252036	-0.591953	3.746533	6.540243	0.114149	19.875056	-13.187318	0.000000	0.136000	0.375454	-0.629115	0.252566	0.499354	-0.668435	0.223434	0.912879	-0.668435	0.155434	0.912879	-0.550476	0.126290	0.765626	-0.511156	0.077710	0.581578	-0.471836	0.971434	4.247210	-3.498950	0.000000	0.000000	26.281659	-6.531618	11.486743	15.197004	-11.674937	77.165002	50.665528	89.308525	-7.402316	-0.497035	7.294410	-11.831249	44.282856	46.929502	69.494816	14.471596	-3.659019
0.066667	6.032395	-4.938742	91.116824	0.312572	1.033110	0.432111	3.305178	-0.935137	-8.976726	10.228556	0.178522	24.707359	10.946140	0.000000	2.378217	-0.564962	3.874127	6.431412	0.112249	19.918202	-12.794027	0.000000	0.143123	0.378706	-0.761695	0.265794	0.503680	-0.809301	0.235137	0.920787	-0.809301	0.163575	0.920787	-0.666483	0.132904	0.772258	-0.618877	0.081780	0.586616	-0.571271	1.022313	4.284003	-4.236318	0.000000	0.000000	26.349513	-6.154955	12.147829	15.805131	-11.405384	78.413781	50.136987	89.315999	-7.467462	-1.081560	6.608265	-11.796125	42.399193	47.311988	70.373703	15.625337	-2.588256
0.083333	5.993975	-5.035099	91.462235	0.312257	1.032648	0.432931	3.406166	-0.991154	-9.049940	10.213263	0.178255	24.993364	10.859000	0.000000	2.492887	-0.515922	4.023800	6.364354	0.111079	19.913933	-12.534307	0.000000	0.147073	0.378365	-0.860275	0.273130	0.503225	-0.914043	0.241627	0.919956	-0.914043	0.168090	0.919956	-0.752741	0.136572	0.771561	-0.698974	0.084038	0.586087	-0.645207	1.050529	4.280136	-4.784594	0.000000	0.000000	26.313970	-5.841965	12.611530	16.218358	-11.191740	79.163085	49.673140	89.317500	-7.172653	-1.289325	6.262910	-11.751170	41.498102	47.418637	71.385829	16.529872	-1.828695
0.100000	5.938196	-5.106199	91.750876	0.311996	1.032320	0.433659	3.487683	-1.069763	-9.201933	10.214764	0.178281	25.230611	10.868043	0.000000	2.594371	-0.447754	4.184744	6.332945	0.110531	19.871134	-12.387357	0.000000	0.148221	0.374829	-0.928673	0.275261	0.498522	-0.986715	0.243512	0.911358	-0.986715	0.169402	0.911358	-0.812589	0.137638	0.764350	-0.754547	0.084693	0.580609	-0.696505	1.058727	4.240135	-5.165000	0.000000	0.000000	26.190331	-5.586182	12.905657	16.470715	-11.022436	79.516351	49.260844	89.314351	-6.608184	-1.195115	6.212096	-11.698957	41.449834	47.287643	72.499832	17.209235	-1.346089
0.116667	5.867060	-5.153907	91.983641	0.311790	1.032112	0.434294	3.550574	-1.167579	-9.416389	10.231124	0.178567	25.423065	10.958050	0.000000	2.680995	-0.363379	4.346152	6.331059	0.110498	19.798695	-12.332379	0.000000	0.146936	0.368499	-0.970703	0.272875	0.490103	-1.031371	0.241401	0.895968	-1.031371	0.167933	0.895968	-0.849365	0.136445	0.751443	-0.788696	0.083959	0.570804	-0.728027	1.049549	4.168531	-5.398757	0.000000	0.000000	25.993897	-5.381139	13.058021	16.596234	-10.885900	79.577020	48.886955	89.307871	-5.864349	-0.873715	6.409575	-11.642060	42.124643	46.957201	73.684352	17.687459	-1.106193
0.133333	5.782571	-5.180088	92.161424	0.311642	1.032011	0.434836	3.595685	-1.281218	-9.676993	10.260407	0.179078	25.574692	11.113801	0.000000	2.751084	-0.265717	4.497216	6.352570	0.110873	19.705501	-12.348571	0.000000	0.143589	0.359775	-0.990181	0.266658	0.478501	-1.052067	0.235902	0.874758	-1.052067	0.164107	0.874758	-0.866408	0.133336	0.733654	-0.804522	0.082047	0.557292	-0.742635	1.025639	4.069851	-5.507087	0.000000	0.000000	25.739970	-5.220371	13.096434	16.628948	-10.770564	79.448527	48.538332	89.299384	-5.031444	-0.399910	6.809099	-11.583053	43.392782	46.465506	74.908028	17.988577	-1.074758
0.150000	5.686733	-5.186606	92.285120	0.311555	1.032004	0.435286	3.623862	-1.407295	-9.967428	10.300676	0.179781	25.689455	11.320078	0.000000	2.802965	-0.157688	4.627129	6.391354	0.111550	19.600441	-12.415134	0.000000	0.138549	0.349059	-0.990923	0.257299	0.464248	-1.052855	0.227622	0.848702	-1.052855	0.158348	0.848702	-0.867057	0.128657	0.711801	-0.805125	0.079167	0.540692	-0.743192	0.989641	3.948624	-5.511214	0.000000	0.000000	25.443853	-5.097412	13.048704	16.602887	-10.664856	79.234313	48.201829	89.290209	-4.199761	0.151512	7.364419	-11.524510	45.124502	45.850753	76.139499	18.136623	-1.217540
0.166667	5.581548	-5.175327	92.355623	0.311531	1.032075	0.435645	3.635950	-1.542426	-10.271380	10.349995	0.180641	25.771319	11.561662	0.000000	2.834963	-0.042213	4.725084	6.441284	0.112422	19.492401	-12.511269	0.000000	0.132187	0.336750	-0.976744	0.245485	0.447877	-1.037791	0.217170	0.818773	-1.037791	0.151077	0.818773	-0.854651	0.122749	0.686700	-0.793605	0.075532	0.521625	-0.732558	0.944199	3.809379	-5.432359	0.000000	0.000000	25.120845	-5.005796	12.942645	16.552083	-10.557208	79.037816	47.864305	89.281668	-3.459596	0.705768	8.029285	-11.469004	47.190058	45.151137	77.347403	18.155630	-1.500291
0.183333	5.451242	-5.127216	92.351118	0.311652	1.032275	0.435955	3.613275	-1.700147	-10.583017	10.412407	0.181731	25.788803	11.842548	0.000000	2.818246	0.089556	4.731947	6.486444	0.113210	19.366680	-12.605570	0.000000	0.123533	0.320589	-0.955412	0.229414	0.426383	-1.015125	0.202953	0.779480	-1.015125	0.141186	0.779480	-0.835985	0.114713	0.653745	-0.776272	0.070587	0.496592	-0.716559	0.882386	3.626566	-5.313715	0.000000	0.000000	24.733017	-4.936538	12.840157	16.721517	-10.308243	79.773890	47.338440	89.283131	-3.832213	0.691310	8.822915	-11.495433	49.666216	44.431293	78.445355	17.984200	-2.004227
0.200000	5.318422	-5.075706	92.299287	0.311842	1.032477	0.436123	3.581558	-1.850102	-10.814865	10.473176	0.182791	25.808305	12.048648	0.000000	2.786680	0.218027	4.649876	6.538413	0.114117	19.296839	-12.625525	0.000000	0.115772	0.304573	-0.935633	0.215001	0.405083	-0.994110	0.190203	0.740540	-0.994110	0.132316	0.740540	-0.818679	0.107506	0.621086	-0.760202	0.066152	0.471784	-0.701725	0.826951	3.445395	-5.203711	0.000000	0.000000	24.414855	-4.847274	12.830999	16.964347	-10.015541	80.850801	46.735448	89.287124	-4.540818	0.335608	9.494978	-11.509584	51.777041	43.757340	79.439860	17.911962	-2.425605
0.216667	5.192605	-5.020658	92.206514	0.312076	1.032664	0.436148	3.541153	-1.986967	-10.986072	10.534265	0.183858	25.838059	12.217403	0.000000	2.734664	0.337455	4.531418	6.580703	0.114855	19.269757	-12.626540	0.000000	0.109013	0.289949	-0.917174	0.202447	0.385632	-0.974498	0.179097	0.704981	-0.974498	0.124591	0.704981	-0.802528	0.101229	0.591263	-0.745204	0.062290	0.449130	-0.687881	0.778666	3.279956	-5.101048	0.000000	0.000000	24.161498	-4.730206	12.915921	17.239959	-9.732978	82.055118	46.180141	89.294816	-5.309535	-0.052224	10.057033	-11.494850	53.567012	43.149431	80.255712	17.913597	-2.758250
0.233333	5.073930	-4.963464	92.059122	0.312377	1.032843	0.436055	3.495754	-2.108240	-11.074471	10.591259	0.184852	25.866152	12.334511	0.000000	2.663410	0.443818	4.309997	6.608750	0.115344	19.313624	-12.519444	0.000000	0.103399	0.276468	-0.897521	0.192022	0.367703	-0.953616	0.169874	0.672205	-0.953616	0.118175	0.672205	-0.785331	0.096016	0.563775	-0.729236	0.059082	0.428250	-0.673141	0.738568	3.127467	-4.991744	0.000000	0.000000	23.962617	-4.608527	13.056202	17.563728	-9.456531	83.399675	45.655614	89.306455	-6.161296	-0.559500	10.495450	-11.461283	55.049203	42.634968	80.840877	17.921137	-3.001543
0.250000	4.966183	-4.908275	91.861804	0.312713	1.033011	0.435870	3.455406	-2.219047	-11.130833	10.655415	0.185972	25.893522	12.478436	0.000000	2.571115	0.536735	4.034061	6.601105	0.115211	19.405088	-12.348843	0.000000	0.099363	0.264657	-0.870275	0.184526	0.351993	-0.924667	0.163243	0.643486	-0.924667	0.113562	0.643486	-0.761490	0.092268	0.539688	-0.707098	0.056776	0.409953	-0.652706	0.709737	2.993849	-4.840207	0.000000	0.000000	23.816803	-4.544559	13.166194	17.874364	-9.219639	84.683095	45.219731	89.322982	-6.931852	-1.032830	10.851264	-11.421406	56.340775	42.191415	81.209802	17.873198	-3.240782
0.266667	4.868679	-4.844445	91.638559	0.313074	1.033198	0.435631	3.404749	-2.316561	-11.144951	10.716416	0.187037	25.904809	12.608846	0.000000	2.456594	0.616152	3.726913	6.567441	0.114623	19.531941	-12.119873	0.000000	0.094488	0.253968	-0.843291	0.175474	0.337777	-0.895996	0.155235	0.617498	-0.895996	0.107991	0.617498	-0.737879	0.087742	0.517892	-0.685174	0.053991	0.393396	-0.632468	0.674920	2.872937	-4.690129	0.000000	0.000000	23.721018	-4.528494	13.246155	18.233255	-8.995873	86.049809	44.829382	89.342011	-7.801983	-1.566762	11.097196	-11.385361	57.385082	41.825645	81.460306	17.728390	-3.518683
0.283333	4.791872	-4.783048	91.366286	0.313455	1.033400	0.435344	3.359583	-2.390266	-11.084285	10.774977	0.188059	25.881373	12.715628	0.000000	2.325746	0.673128	3.383865	6.497335	0.113400	19.670173	-11.862578	0.000000	0.089744	0.246118	-0.811621	0.166664	0.327336	-0.862347	0.147441	0.598410	-0.862347	0.102569	0.598410	-0.710168	0.083337	0.501883	-0.659442	0.051280	0.381236	-0.608716	0.641035	2.784132	-4.513991	0.000000	0.000000	23.669118	-4.581517	13.277057	18.580407	-8.810955	87.316944	44.521477	89.365752	-8.598513	-2.052095	11.180506	-11.329503	58.045126	41.567983	81.595478	17.446440	-3.773151
0.300000	4.730957	-4.719076	91.082229	0.313822	1.033624	0.435031	3.307337	-2.444757	-10.972947	10.821879	0.188877	25.818501	12.782615	0.000000	2.175384	0.715123	3.054425	6.385879	0.111455	19.800292	-11.605027	0.000000	0.083920	0.240269	-0.778087	0.155848	0.319557	-0.826717	0.137872	0.584189	-0.826717	0.095912	0.584189	-0.680826	0.077928	0.489956	-0.632195	0.047952	0.372176	-0.583565	0.599432	2.717968	-4.327484	0.000000	0.000000	23.641748	-4.686598	13.247482	18.922795	-8.661208	88.481429	44.279957	89.386600	-9.304357	-2.510715	11.149031	-11.279450	58.417065	41.421951	81.606276	16.994415	-3.991102
